<svg xmlns="http://www.w3.org/2000/svg" viewBox="0 0 1024 486.8" enable-background="new 0 0 1024 486.8"><linearGradient id="a" gradientUnits="userSpaceOnUse" x1="238.837" y1="749.951" x2="218.342" y2="531.163" gradientTransform="matrix(1.855 0 0 -1.855 99.154 1424.696)"><stop offset="0" stop-color="#ff0"/><stop offset="1" stop-color="#FFDC00"/></linearGradient><path fill="url(#a)" d="M143.7 258l25.8 26.5.9 13.2 4.8 74.8 15.2 6.5.6 9.3 9.3 13.9 7.4-.6 17.8 14.1 8.5 16.5 22.6 30.4-2 24.1c72-13.7 149.5-23.7 230.8-28.9 164.7-10.8 317.6-.4 439.1 25.6l.2-.2-20.4-25-32.5-7.2-6.7-16.5 2.4-18.9L874 402l-1.1-16.9 11.1-4.5 8.5-15.6-13.4-3-33.2 9.6-13.9-12.2-16 15.8-5 9.3 15-.9 30.8 11.5-16.5 6.9-6.7 13.7-4.6 15.4-23.9 7.2-5-20.4-8.1-8.9-4.8 13.5-16.3-19.7 3.2-9.6-14.1-14.1-23.4-7.8-15.6-4.6-1.5-22.4-8.5-21.9-5-22.3 20-10.8 1.9-30.2-12.4-18-16.1-17.8-15.2-.9-16.5 6.7-1.9-29.9-11.7-6.7-10.4-16.1-6.5-12.8-19.5-17.1-22.4-26.7 9.3-30.6-21-6.1 4.8-13.5-19.1-6.3 6.7-11.7-9.6-5-20.6-26.9-25.7-17.1L503 0l-16.3 8.3-10.6 9.8-7.4.6L449 33.4l-19.7 14.5-4.6 9.8-29.5 32.1 1.1 16.9.6 9.3-9.5 2.4-1.7 9.5-46 49.9.7 11.1-16 10.2-1.1 7.4-33.6 2.2-22.3 3.5-14.7 4.6-26.7-5.9-52.3 3.3-74.8 16.5 15.4 8.5 29.4 18.8z"/></svg>