<svg xmlns="http://www.w3.org/2000/svg" viewBox="0 0 445.1 414" enable-background="new 0 0 445.1 414"><linearGradient id="a" gradientUnits="userSpaceOnUse" x1="238.906" y1="18.055" x2="218.411" y2="236.843"><stop offset="0" stop-color="#ff0"/><stop offset="1" stop-color="#FFDC00"/></linearGradient><path fill="url(#a)" d="M24 139.1l13.9 14.3.5 7.1 2.6 40.3 8.2 3.5.3 5 5 7.5 4-.3 9.6 7.6 4.6 8.9 12.2 16.4-1.1 13c38.8-7.4 80.6-12.8 124.4-15.6 88.8-5.8 171.2-.2 236.7 13.8l.1-.1-11-13.5-17.5-3.9-3.6-8.9 1.3-10.2 3.5-7.3-.6-9.1 6-2.4 4.6-8.4-7.2-1.6-17.9 5.2-7.5-6.6-8.6 8.5-2.7 5 8.1-.5 16.6 6.2-8.9 3.7-3.6 7.4-2.5 8.3-12.9 3.9-2.7-11-4.4-4.8-2.6 7.3-8.8-10.6 1.7-5.2-7.6-7.6-12.6-4.2-8.4-2.5-.8-12.1-4.6-11.8-2.7-12 10.8-5.8 1-16.3-6.7-9.7-8.7-9.6-8.2-.5-8.9 3.6-1-16.1-6.3-3.6-5.6-8.7-3.5-6.9-10.5-9.2-12.1-14.4 5-16.5-11.3-3.3 2.6-7.3-10.3-3.4 3.6-6.3-5.2-2.7-11.1-14.5-13.8-9.2-9.2-1.4-8.8 4.5-5.7 5.3-4 .3-10.6 7.9-10.6 7.8-2.5 5.3-15.9 17.3.6 9.1.3 5-5.1 1.3-.9 5.1-24.8 26.9.4 6-8.6 5.5-.6 4-18.1 1.2-12 1.9-7.9 2.5-14.4-3.2-28.2 1.8L0 124.4l8.3 4.6L24 139.1z"/><g fill="#FFDC00"><path d="M141.3 260.6c9.8-1.3 18.4.5 25.6 5.4 7.2 4.9 11.1 13.1 12.2 24.6 1 11.5-1.3 20.4-6.8 26.9s-13.2 10.3-23.4 11.7c-10.2 1.4-18.6-.1-25.5-4.9-6.9-4.7-11.4-12.6-13.5-23.6-1.1-6-1.1-11.5.3-16.5 1.3-5 3.6-9 6.8-12.1 6.2-6.2 14.5-10.1 24.3-11.5zm-16.8 37.1c2.8 16.3 10.7 23.3 23.8 21.5 7-1 11.6-4.1 13.9-9.4 2.1-4.7 2.9-10.3 2.2-16.7-.6-5.8-2.4-10.9-5.4-15.5-1.7-2.5-4-4.3-7-5.5-3-1.2-6.8-1.5-11.3-.8-4.5.6-8.2 2.4-11 5.3-2.8 2.9-4.6 6.1-5.2 9.6-.8 3.4-.7 7.2 0 11.5zM241.3 273.1c0 12.4.1 24.8.1 37.2 0 1.1.2 1.8.6 2.2.4.4 1.2.6 2.3.7 1.2.1 2.5.1 3.7.2 0 2.7 0 5.3-.1 8-6 0-12.1 0-18.1.1 0-1.9-.1-3.9-.1-5.8-.1 0-.2-.1-.3-.1-3.7 4.9-8.8 7.4-15.4 7.7-7.7.3-13.6-1.5-17.6-5.5-4-4.1-6.4-9.8-7-17.3-.7-9 1.4-16.3 6.4-21.7 5-5.4 13-8.4 23.8-8.8 6.8-.2 14.1.8 21.7 3.1zm-13.4 32.6l-.6-25.9c-2.3-.8-5.4-1.2-9.4-1-5.4.2-9.2 2.2-11.5 5.9-2.2 3.7-3.1 8.5-2.8 14.5.6 10.8 4.9 15.9 12.9 15.6 3.4-.1 6.1-1.1 8.2-2.9 2.2-1.9 3.2-4 3.2-6.2zM262.2 310.4c.4-16.2.9-32.5 1.3-48.7 0-1.1-.2-1.8-.6-2.2-.4-.4-1.2-.7-2.4-.8-1.4-.1-2.9-.2-4.3-.3 0-2.8.1-5.5.1-8.3 7.5.1 14.9.4 22.4.7-.4 9-.8 17.9-1.2 26.9 4.4-4.7 10.5-6.9 18.2-6.3 6.2.4 10.9 2.3 14 5.5 3.1 3.2 4.3 7.7 3.8 13.5-.8 8.7-1.7 17.3-2.5 26 2.2.3 4.3.6 6.5 1-.3 2.7-.6 5.3-.8 8-9-1-18-1.7-27-2.3.2-2.5.3-5.1.5-7.6h3.8c1.2 0 2-.3 2.6-.7.6-.4.9-1.2 1-2.4.5-6.8 1.1-13.7 1.6-20.5.3-3.5-.2-6.2-1.4-8.1-1.2-2-3.7-3.1-7.5-3.3-3.8-.2-7 .6-9.3 2.4-2.4 1.8-3.6 4.2-3.8 7-.4 8.1-.8 16.1-1.1 24.2l6.6.6c-.1 2.7-.3 5.3-.4 8-9-.5-18.1-.8-27.1-1 0-2.5.1-5.1.1-7.6 1.3-.1 2.5-.2 3.8-.2 1.2-.1 2-.4 2.6-.8.1-.6.4-1.5.5-2.7zM384.6 328c-.5 2.6-1.1 5.2-1.6 7.7-6.1-1.3-12.1-2.4-18.2-3.5.4-2.1.8-4.3 1.1-6.4-5.1 4.4-11.6 5.9-19.6 4.7-11.6-1.7-16.8-8.1-15.4-19.6 1-7.6 1.9-15.3 2.9-22.9.2-1.8-.7-2.8-2.7-3.1-1.3-.2-2.5-.4-3.8-.7l.9-8.1c7.1.8 14.3 1.8 21.4 2.8-1.5 10.5-3 20.9-4.6 31.4-.5 3.5-.3 6.2.6 8.2.9 2 3.1 3.2 6.7 3.8 3.6.6 6.6.1 9.1-1.4s4-3.6 4.5-6.3c1.2-6.9 2.4-13.9 3.7-20.8.2-1 .1-1.8-.3-2.3-.4-.5-1.1-.9-2.2-1.1-1.3-.3-2.5-.6-3.8-.8.4-2.7.9-5.4 1.3-8.1 7.1 1.2 14.2 2.5 21.3 3.9-2.5 12.8-5 25.6-7.6 38.5-.2 1-.2 1.8.2 2.2.3.4 1 .8 2.1 1.2 1.4-.1 2.7.3 4 .7zM120 414c-.5-2.6-1.1-5.3-1.6-7.9 1.1-.3 2.2-.7 3.3-1 1.9-.6 2.7-1.7 2.4-3.3l-9-45.6c-2.1.3-4.2.6-6.3 1-.6-2.8-1.1-5.5-1.7-8.3 10.5-2.2 21-4.1 31.6-5.7 8.3-1.3 15-.4 20 2.5s7.9 7.9 8.7 14.8c.8 7-1.1 12.7-5.6 17.2s-10.7 7.3-18.8 8.6c-2.9.5-5.9 1-8.8 1.5.8 4.8 1.7 9.5 2.5 14.3 3.3-.5 6.5-.9 9.8-1.3.4 2.8.9 5.6 1.3 8.4-9.2 1.2-18.5 2.9-27.8 4.8zm12.6-36c2.5-.4 5-.9 7.6-1.3 10.2-1.7 14.8-6.2 13.7-14.1-.7-4.8-2.4-7.7-5.4-8.9-2.9-1.2-7.4-1.3-13.4-.3-2.2.4-4.4.7-6.6 1.1 1.4 7.9 2.7 15.7 4.1 23.5zM193.4 353c1.1 14 2.1 27.9 3.2 41.9 1.9 0 3.9-.1 5.8-.1.2 2.7.4 5.3.5 8-8 .5-15.9 1.2-23.9 2.1-.3-2.5-.5-5-.8-7.6l3.3-.6c1.9-.4 2.8-1.5 2.6-3.5-.9-9.2-1.8-18.4-2.7-27.7-.1-1.1-.4-1.9-.8-2.2-.4-.4-1.1-.5-2.1-.4-1.3.1-2.5.1-3.8.2-.3-2.8-.6-5.5-.9-8.3 6.6-.7 13.1-1.3 19.6-1.8zm-14.6-7.4c-1.7-1.2-2.6-2.9-2.8-5-.2-2.1.4-4 1.8-5.6 1.4-1.6 3.4-2.5 6-2.7 2.5-.2 4.7.3 6.4 1.6 1.7 1.3 2.6 3 2.8 5.1.2 2.1-.5 3.9-2 5.4-1.5 1.5-3.4 2.3-5.9 2.6-2.5.3-4.6-.2-6.3-1.4zM250.5 401.4c-13.7-.2-27.4.1-41.1.9-.1-2.5-.3-5.1-.4-7.6 8.1-11.7 16.7-23.3 25.8-34.7-4.5.1-9 .2-13.6.3-1.5.1-2.4.4-2.8.9-.4.5-.5 1.4-.5 2.6 0 1.2.1 2.3.1 3.5-3.3-.1-6.7-.2-10-.2-.3-5-.6-10.1-.8-15.1 14.5-.8 28.9-1.1 43.4-1 0 2.3 0 4.5-.1 6.8-9.5 11.4-18.5 23-27 34.8 4.8-.2 9.7-.3 14.5-.3 2 0 3-1.2 3-3.4v-4.2c3.2.2 6.5.5 9.7.7 0 5.4-.1 10.7-.2 16zM299.1 404c-13.7-1.3-27.3-2.1-41-2.4.1-2.5.1-5.1.2-7.6 9-11.1 18.5-21.9 28.4-32.5-4.5-.3-9-.6-13.5-.8-1.5-.1-2.5.2-2.9.7-.4.5-.6 1.4-.7 2.6 0 1.2-.1 2.3-.1 3.5-3.3-.4-6.7-.7-10-1 .1-5 .3-10.1.4-15.1 14.5.4 28.9 1.2 43.3 2.5-.2 2.3-.4 4.5-.6 6.8-10.4 10.6-20.3 21.5-29.7 32.5 4.8.2 9.7.5 14.5.9 2 .1 3-.9 3.2-3.2l.3-4.2 9.6 1.5c-.4 5.2-.9 10.5-1.4 15.8zM359.4 363.4l-6.6 36.6c-.2 1-.1 1.8.2 2.3.3.5.9.8 1.8 1 1.1.3 2.1.5 3.2.8-.5 2.6-1 5.2-1.5 7.9-5.3-1-10.5-1.9-15.8-2.8l.9-5.7c-.1 0-.2-.1-.3-.1-4.1 4.2-9 5.9-14.8 5.1-6.8-.9-11.5-3.7-14.4-8.4-2.8-4.7-3.9-10.7-3.1-18.2.9-9 4-15.8 9.3-20.3 5.3-4.5 12.8-6.1 22.4-4.7 6.2.8 12.4 3 18.7 6.5zm-17.6 29.9c1.4-8.5 2.7-17.1 4.1-25.6-1.9-1.2-4.5-2-8-2.5-4.8-.7-8.5.6-11.1 3.9-2.6 3.3-4.2 7.9-5 13.8-1.3 10.7 1.5 16.5 8.5 17.5 3 .4 5.5-.1 7.7-1.5 2.2-1.5 3.4-3.4 3.8-5.6z"/></g></svg>