<?xml version="1.0" encoding="utf-8"?>
<!-- Generator: Adobe Illustrator 18.1.1, SVG Export Plug-In . SVG Version: 6.00 Build 0)  -->
<svg version="1.1" id="Layer_1" xmlns="http://www.w3.org/2000/svg" xmlns:xlink="http://www.w3.org/1999/xlink" x="0px" y="0px"
	 viewBox="0 0 445.1 414" enable-background="new 0 0 445.1 414" xml:space="preserve">
<g>
	<linearGradient id="SVGID_1_" gradientUnits="userSpaceOnUse" x1="238.9058" y1="18.0551" x2="218.4107" y2="236.8434">
		<stop  offset="0" style="stop-color:#FFFF00"/>
		<stop  offset="1" style="stop-color:#FFDC00"/>
	</linearGradient>
	<path fill="url(#SVGID_1_)" d="M24,139.1l13.9,14.3l0.5,7.1l2.6,40.3l8.2,3.5l0.3,5l5,7.5l4-0.3l9.6,7.6l4.6,8.9l12.2,16.4l-1.1,13
		c38.8-7.4,80.6-12.8,124.4-15.6c88.8-5.8,171.2-0.2,236.7,13.8l0.1-0.1l-11-13.5l-17.5-3.9l-3.6-8.9l1.3-10.2l3.5-7.3l-0.6-9.1
		l6-2.4l4.6-8.4l-7.2-1.6l-17.9,5.2l-7.5-6.6l-8.6,8.5l-2.7,5l8.1-0.5l16.6,6.2l-8.9,3.7l-3.6,7.4l-2.5,8.3l-12.9,3.9l-2.7-11
		l-4.4-4.8l-2.6,7.3l-8.8-10.6l1.7-5.2l-7.6-7.6l-12.6-4.2l-8.4-2.5l-0.8-12.1l-4.6-11.8l-2.7-12l10.8-5.8l1-16.3l-6.7-9.7l-8.7-9.6
		l-8.2-0.5l-8.9,3.6l-1-16.1l-6.3-3.6l-5.6-8.7l-3.5-6.9L279.5,79l-12.1-14.4l5-16.5l-11.3-3.3l2.6-7.3l-10.3-3.4l3.6-6.3l-5.2-2.7
		l-11.1-14.5l-13.8-9.2L217.7,0l-8.8,4.5l-5.7,5.3l-4,0.3l-10.6,7.9l-10.6,7.8l-2.5,5.3l-15.9,17.3l0.6,9.1l0.3,5l-5.1,1.3l-0.9,5.1
		l-24.8,26.9l0.4,6l-8.6,5.5l-0.6,4l-18.1,1.2l-12,1.9l-7.9,2.5l-14.4-3.2l-28.2,1.8L0,124.4l8.3,4.6L24,139.1z"/>
	<g>
		<path fill="#FFDC00" d="M141.3,260.6c9.8-1.3,18.4,0.5,25.6,5.4c7.2,4.9,11.1,13.1,12.2,24.6c1,11.5-1.3,20.4-6.8,26.9
			c-5.5,6.5-13.2,10.3-23.4,11.7c-10.2,1.4-18.6-0.1-25.5-4.9c-6.9-4.7-11.4-12.6-13.5-23.6c-1.1-6-1.1-11.5,0.3-16.5
			c1.3-5,3.6-9,6.8-12.1C123.2,265.9,131.5,262,141.3,260.6z M124.5,297.7c2.8,16.3,10.7,23.3,23.8,21.5c7-1,11.6-4.1,13.9-9.4
			c2.1-4.7,2.9-10.3,2.2-16.7c-0.6-5.8-2.4-10.9-5.4-15.5c-1.7-2.5-4-4.3-7-5.5c-3-1.2-6.8-1.5-11.3-0.8c-4.5,0.6-8.2,2.4-11,5.3
			c-2.8,2.9-4.6,6.1-5.2,9.6C123.7,289.6,123.8,293.4,124.5,297.7z"/>
		<path fill="#FFDC00" d="M241.3,273.1c0,12.4,0.1,24.8,0.1,37.2c0,1.1,0.2,1.8,0.6,2.2c0.4,0.4,1.2,0.6,2.3,0.7
			c1.2,0.1,2.5,0.1,3.7,0.2c0,2.7,0,5.3-0.1,8c-6,0-12.1,0-18.1,0.1c0-1.9-0.1-3.9-0.1-5.8c-0.1,0-0.2-0.1-0.3-0.1
			c-3.7,4.9-8.8,7.4-15.4,7.7c-7.7,0.3-13.6-1.5-17.6-5.5c-4-4.1-6.4-9.8-7-17.3c-0.7-9,1.4-16.3,6.4-21.7c5-5.4,13-8.4,23.8-8.8
			C226.4,269.8,233.7,270.8,241.3,273.1z M227.9,305.7c-0.2-8.6-0.4-17.3-0.6-25.9c-2.3-0.8-5.4-1.2-9.4-1
			c-5.4,0.2-9.2,2.2-11.5,5.9c-2.2,3.7-3.1,8.5-2.8,14.5c0.6,10.8,4.9,15.9,12.9,15.6c3.4-0.1,6.1-1.1,8.2-2.9
			C226.9,310,227.9,307.9,227.9,305.7z"/>
		<path fill="#FFDC00" d="M262.2,310.4c0.4-16.2,0.9-32.5,1.3-48.7c0-1.1-0.2-1.8-0.6-2.2c-0.4-0.4-1.2-0.7-2.4-0.8
			c-1.4-0.1-2.9-0.2-4.3-0.3c0-2.8,0.1-5.5,0.1-8.3c7.5,0.1,14.9,0.4,22.4,0.7c-0.4,9-0.8,17.9-1.2,26.9c4.4-4.7,10.5-6.9,18.2-6.3
			c6.2,0.4,10.9,2.3,14,5.5c3.1,3.2,4.3,7.7,3.8,13.5c-0.8,8.7-1.7,17.3-2.5,26c2.2,0.3,4.3,0.6,6.5,1c-0.3,2.7-0.6,5.3-0.8,8
			c-9-1-18-1.7-27-2.3c0.2-2.5,0.3-5.1,0.5-7.6c1.3,0,2.5,0,3.8,0c1.2,0,2-0.3,2.6-0.7c0.6-0.4,0.9-1.2,1-2.4
			c0.5-6.8,1.1-13.7,1.6-20.5c0.3-3.5-0.2-6.2-1.4-8.1c-1.2-2-3.7-3.1-7.5-3.3c-3.8-0.2-7,0.6-9.3,2.4c-2.4,1.8-3.6,4.2-3.8,7
			c-0.4,8.1-0.8,16.1-1.1,24.2c2.2,0.2,4.4,0.4,6.6,0.6c-0.1,2.7-0.3,5.3-0.4,8c-9-0.5-18.1-0.8-27.1-1c0-2.5,0.1-5.1,0.1-7.6
			c1.3-0.1,2.5-0.2,3.8-0.2c1.2-0.1,2-0.4,2.6-0.8C261.8,312.5,262.1,311.6,262.2,310.4z"/>
		<path fill="#FFDC00" d="M384.6,328c-0.5,2.6-1.1,5.2-1.6,7.7c-6.1-1.3-12.1-2.4-18.2-3.5c0.4-2.1,0.8-4.3,1.1-6.4
			c-5.1,4.4-11.6,5.9-19.6,4.7c-11.6-1.7-16.8-8.1-15.4-19.6c1-7.6,1.9-15.3,2.9-22.9c0.2-1.8-0.7-2.8-2.7-3.1
			c-1.3-0.2-2.5-0.4-3.8-0.7c0.3-2.7,0.6-5.4,0.9-8.1c7.1,0.8,14.3,1.8,21.4,2.8c-1.5,10.5-3,20.9-4.6,31.4
			c-0.5,3.5-0.3,6.2,0.6,8.2c0.9,2,3.1,3.2,6.7,3.8c3.6,0.6,6.6,0.1,9.1-1.4c2.5-1.5,4-3.6,4.5-6.3c1.2-6.9,2.4-13.9,3.7-20.8
			c0.2-1,0.1-1.8-0.3-2.3c-0.4-0.5-1.1-0.9-2.2-1.1c-1.3-0.3-2.5-0.6-3.8-0.8c0.4-2.7,0.9-5.4,1.3-8.1c7.1,1.2,14.2,2.5,21.3,3.9
			c-2.5,12.8-5,25.6-7.6,38.5c-0.2,1-0.2,1.8,0.2,2.2c0.3,0.4,1,0.8,2.1,1.2C382,327.2,383.3,327.6,384.6,328z"/>
		<path fill="#FFDC00" d="M120,414c-0.5-2.6-1.1-5.3-1.6-7.9c1.1-0.3,2.2-0.7,3.3-1c1.9-0.6,2.7-1.7,2.4-3.3c-3-15.2-6-30.4-9-45.6
			c-2.1,0.3-4.2,0.6-6.3,1c-0.6-2.8-1.1-5.5-1.7-8.3c10.5-2.2,21-4.1,31.6-5.7c8.3-1.3,15-0.4,20,2.5c5,2.9,7.9,7.9,8.7,14.8
			c0.8,7-1.1,12.7-5.6,17.2c-4.5,4.5-10.7,7.3-18.8,8.6c-2.9,0.5-5.9,1-8.8,1.5c0.8,4.8,1.7,9.5,2.5,14.3c3.3-0.5,6.5-0.9,9.8-1.3
			c0.4,2.8,0.9,5.6,1.3,8.4C138.6,410.4,129.3,412.1,120,414z M132.6,378c2.5-0.4,5-0.9,7.6-1.3c10.2-1.7,14.8-6.2,13.7-14.1
			c-0.7-4.8-2.4-7.7-5.4-8.9c-2.9-1.2-7.4-1.3-13.4-0.3c-2.2,0.4-4.4,0.7-6.6,1.1C129.9,362.4,131.2,370.2,132.6,378z"/>
		<path fill="#FFDC00" d="M193.4,353c1.1,14,2.1,27.9,3.2,41.9c1.9,0,3.9-0.1,5.8-0.1c0.2,2.7,0.4,5.3,0.5,8
			c-8,0.5-15.9,1.2-23.9,2.1c-0.3-2.5-0.5-5-0.8-7.6c1.1-0.2,2.2-0.4,3.3-0.6c1.9-0.4,2.8-1.5,2.6-3.5c-0.9-9.2-1.8-18.4-2.7-27.7
			c-0.1-1.1-0.4-1.9-0.8-2.2c-0.4-0.4-1.1-0.5-2.1-0.4c-1.3,0.1-2.5,0.1-3.8,0.2c-0.3-2.8-0.6-5.5-0.9-8.3
			C180.4,354.1,186.9,353.5,193.4,353z M178.8,345.6c-1.7-1.2-2.6-2.9-2.8-5c-0.2-2.1,0.4-4,1.8-5.6c1.4-1.6,3.4-2.5,6-2.7
			c2.5-0.2,4.7,0.3,6.4,1.6c1.7,1.3,2.6,3,2.8,5.1c0.2,2.1-0.5,3.9-2,5.4c-1.5,1.5-3.4,2.3-5.9,2.6
			C182.6,347.3,180.5,346.8,178.8,345.6z"/>
		<path fill="#FFDC00" d="M250.5,401.4c-13.7-0.2-27.4,0.1-41.1,0.9c-0.1-2.5-0.3-5.1-0.4-7.6c8.1-11.7,16.7-23.3,25.8-34.7
			c-4.5,0.1-9,0.2-13.6,0.3c-1.5,0.1-2.4,0.4-2.8,0.9c-0.4,0.5-0.5,1.4-0.5,2.6c0,1.2,0.1,2.3,0.1,3.5c-3.3-0.1-6.7-0.2-10-0.2
			c-0.3-5-0.6-10.1-0.8-15.1c14.5-0.8,28.9-1.1,43.4-1c0,2.3,0,4.5-0.1,6.8c-9.5,11.4-18.5,23-27,34.8c4.8-0.2,9.7-0.3,14.5-0.3
			c2,0,3-1.2,3-3.4c0-1.4,0-2.8,0-4.2c3.2,0.2,6.5,0.5,9.7,0.7C250.7,390.8,250.6,396.1,250.5,401.4z"/>
		<path fill="#FFDC00" d="M299.1,404c-13.7-1.3-27.3-2.1-41-2.4c0.1-2.5,0.1-5.1,0.2-7.6c9-11.1,18.5-21.9,28.4-32.5
			c-4.5-0.3-9-0.6-13.5-0.8c-1.5-0.1-2.5,0.2-2.9,0.7c-0.4,0.5-0.6,1.4-0.7,2.6c0,1.2-0.1,2.3-0.1,3.5c-3.3-0.4-6.7-0.7-10-1
			c0.1-5,0.3-10.1,0.4-15.1c14.5,0.4,28.9,1.2,43.3,2.5c-0.2,2.3-0.4,4.5-0.6,6.8c-10.4,10.6-20.3,21.5-29.7,32.5
			c4.8,0.2,9.7,0.5,14.5,0.9c2,0.1,3-0.9,3.2-3.2c0.1-1.4,0.2-2.8,0.3-4.2c3.2,0.5,6.4,1,9.6,1.5C300.1,393.4,299.6,398.7,299.1,404
			z"/>
		<path fill="#FFDC00" d="M359.4,363.4c-2.2,12.2-4.4,24.4-6.6,36.6c-0.2,1-0.1,1.8,0.2,2.3c0.3,0.5,0.9,0.8,1.8,1
			c1.1,0.3,2.1,0.5,3.2,0.8c-0.5,2.6-1,5.2-1.5,7.9c-5.3-1-10.5-1.9-15.8-2.8c0.3-1.9,0.6-3.8,0.9-5.7c-0.1,0-0.2-0.1-0.3-0.1
			c-4.1,4.2-9,5.9-14.8,5.1c-6.8-0.9-11.5-3.7-14.4-8.4c-2.8-4.7-3.9-10.7-3.1-18.2c0.9-9,4-15.8,9.3-20.3
			c5.3-4.5,12.8-6.1,22.4-4.7C346.9,357.7,353.1,359.9,359.4,363.4z M341.8,393.3c1.4-8.5,2.7-17.1,4.1-25.6c-1.9-1.2-4.5-2-8-2.5
			c-4.8-0.7-8.5,0.6-11.1,3.9c-2.6,3.3-4.2,7.9-5,13.8c-1.3,10.7,1.5,16.5,8.5,17.5c3,0.4,5.5-0.1,7.7-1.5
			C340.2,397.4,341.4,395.5,341.8,393.3z"/>
	</g>
</g>
</svg>
