<?xml version="1.0" encoding="utf-8"?>
<!-- Generator: Adobe Illustrator 18.1.1, SVG Export Plug-In . SVG Version: 6.00 Build 0)  -->
<svg version="1.1" id="Layer_1" xmlns="http://www.w3.org/2000/svg" xmlns:xlink="http://www.w3.org/1999/xlink" x="0px" y="0px"
	 viewBox="0 0 1024 486.8" enable-background="new 0 0 1024 486.8" xml:space="preserve">
<linearGradient id="SVGID_1_" gradientUnits="userSpaceOnUse" x1="238.8371" y1="749.9514" x2="218.342" y2="531.163" gradientTransform="matrix(1.8551 0 0 -1.8551 99.1536 1424.6957)">
	<stop  offset="0" style="stop-color:#FFFF00"/>
	<stop  offset="1" style="stop-color:#FFDC00"/>
</linearGradient>
<path fill="url(#SVGID_1_)" d="M143.7,258l25.8,26.5l0.9,13.2l4.8,74.8l15.2,6.5l0.6,9.3l9.3,13.9l7.4-0.6l17.8,14.1l8.5,16.5
	l22.6,30.4l-2,24.1c72-13.7,149.5-23.7,230.8-28.9c164.7-10.8,317.6-0.4,439.1,25.6l0.2-0.2l-20.4-25l-32.5-7.2l-6.7-16.5l2.4-18.9
	L874,402l-1.1-16.9l11.1-4.5l8.5-15.6l-13.4-3l-33.2,9.6l-13.9-12.2l-16,15.8l-5,9.3l15-0.9l30.8,11.5l-16.5,6.9l-6.7,13.7
	l-4.6,15.4l-23.9,7.2l-5-20.4L792,409l-4.8,13.5l-16.3-19.7l3.2-9.6l-14.1-14.1l-23.4-7.8l-15.6-4.6l-1.5-22.4l-8.5-21.9l-5-22.3
	l20-10.8l1.9-30.2l-12.4-18l-16.1-17.8l-15.2-0.9l-16.5,6.7l-1.9-29.9l-11.7-6.7l-10.4-16.1l-6.5-12.8l-19.5-17.1l-22.4-26.7
	l9.3-30.6l-21-6.1l4.8-13.5l-19.1-6.3l6.7-11.7l-9.6-5l-20.6-26.9L520.1,2.6L503,0l-16.3,8.3l-10.6,9.8l-7.4,0.6L449,33.4
	l-19.7,14.5l-4.6,9.8l-29.5,32.1l1.1,16.9l0.6,9.3l-9.5,2.4l-1.7,9.5l-46,49.9l0.7,11.1l-16,10.2l-1.1,7.4l-33.6,2.2l-22.3,3.5
	l-14.7,4.6l-26.7-5.9l-52.3,3.3l-74.8,16.5l15.4,8.5L143.7,258z"/>
</svg>
